<svg xmlns="http://www.w3.org/2000/svg" viewBox="0 0 31 31"><path d="M1 1h7v7h-7zM10 1h2v1h1v1h-1v3h-1v-2h-1v-1h1v-1h-1zM13 1h1v1h-1zM15 1h1v1h-1zM20 1h2v1h-1v1h-1zM23 1h7v7h-7zM2 2v5h5v-5zM9 2h1v1h-1zM14 2h1v1h-1zM18 2h1v1h-1zM24 2v5h5v-5zM3 3h3v3h-3zM16 3h1v1h-1zM19 3h1v1h-1zM21 3h1v5h-1v-1h-1v-3h1zM25 3h3v3h-3zM13 4h2v2h-1v-1h-1zM17 4h1v2h1v1h-1v1h-1v-1h-1v1h-1v-2h2zM9 5h1v1h-1zM9 7h1v1h-1zM11 7h1v2h1v4h1v2h-1v-1h-1v-1h-1v1h1v2h2v1h-3v1h-1v-2h1v-1h-1v-3h1v-1h1v-1h-2v-2h1zM13 7h1v2h-1zM19 7h1v1h-1zM16 8h1v1h-1zM18 8h1v1h1v1h-2v1h1v1h1v1h-1v1h-1v-1h-1v-1h-1v1h1v2h-2v-2h-1v-1h1v-1h1v-1h1v-1h1zM1 9h1v1h1v1h1v5h-2v1h-1v-4h2v-1h-2zM3 9h1v1h-1zM5 9h1v1h-1zM7 9h1v1h-1zM25 9h1v1h-1zM28 9h1v1h-1zM4 10h1v1h-1zM6 10h1v1h1v-1h2v2h-1v1h-1v-1h-1v1h-1v2h2v-1h1v3h-1v-1h-1v1h-2v-5h1zM14 10h1v1h-1zM23 10h2v1h1v1h-1v3h-2v-2h-1v-1h-1v-1h2zM26 10h1v1h-1zM29 10h1v2h-1v1h1v3h-1v1h1v3h-1v1h-1v-2h1v-1h-1v-3h1v-1h-1v-2h-1v-1h2zM26 12h1v2h1v1h-2zM7 13h1v1h-1zM20 13h1v1h-1zM14 15h1v1h-1zM21 15h1v1h-1zM16 16h1v1h-1zM18 16h2v1h-1v2h-1v1h1v-1h1v2h-1v1h-1v-1h-1v-1h-1v1h1v2h-2v-2h-1v-1h1v-1h1v-1h1v-1h1zM22 16h1v1h-1zM25 16h2v1h-2zM2 17h1v1h1v1h1v-1h2v1h1v-1h2v1h-1v1h1v1h2v2h-1v2h-1v-2h-1v-2h-1v-1h-5v-1h-1zM7 17h1v1h-1zM23 17h1v1h1v1h-2v1h2v1h1v2h1v4h1v1h-1v2h-1v-2h-1v-2h-2v3h-1v1h-1v-1h-1v-3h1v-1h-2v1h-1v1h1v2h-1v1h-2v-1h1v-1h-1v-2h1v-1h1v-1h1v-1h2v-2h1v-1h-1v-1h1v-1h1zM11 18h1v1h1v2h-1v-1h-1zM13 18h2v1h-2zM27 18h1v1h-1zM1 19h1v1h-1zM26 19h1v2h-1zM2 20h1v1h-1zM1 21h1v1h-1zM4 21h1v1h-1zM6 21h2v1h-2zM13 22h1v1h1v1h-2zM22 22v3h3v-3zM27 22h3v2h-2v-1h-1zM1 23h7v7h-7zM23 23h1v1h-1zM2 24v5h5v-5zM16 24h1v1h-1zM3 25h3v3h-3zM9 25h1v1h-1zM28 25h1v1h-1zM10 26h1v1h1v1h-3v-1h1zM12 26h3v1h-1v2h-1v-2h-1zM21 27v1h1v-1zM29 27h1v1h-1zM15 28h1v1h-1zM28 28h1v1h1v1h-2zM9 29h3v1h-3zM14 29h1v1h-1zM19 29h1v1h-1zM23 29h1v1h-1z"/></svg>